# xmcd
#
# Track frame offsets: 
#        150
#        21523
#        49985
#        68473
#        107886
#        122568
#        141815
#        184033
#        231310
#
# Disc length: 3290 seconds
#
# Revision: 0
# Processed by: cddbd v1.5.2PL0 Copyright (c) Steve Scherf et al.
# Submitted via: ExactAudioCopy v0.95b4
#
DISCID=7d0cd809
DTITLE=Van Morrison  - It's Too Late To Stop Now - CD 2 {Rem and Exp 200
DTITLE=8}
DYEAR=1900
DGENRE=
TTITLE0=01 - Bring It On Home To Me
TTITLE1=02 - Saint Dominic's Preview
TTITLE2=03 - Take Your Hands Out Of My Pocket
TTITLE3=04 - Listen To The Lion
TTITLE4=05 - Here Comes The Night
TTITLE5=06 - Gloria
TTITLE6=07 - Caravan
TTITLE7=08 - Cyprus Avenue
TTITLE8=09 - Brown Eyed Girl
EXTD=
EXTT0=
EXTT1=
EXTT2=
EXTT3=
EXTT4=
EXTT5=
EXTT6=
EXTT7=
EXTT8=
PLAYORDER=
